<mxfile host="app.diagrams.net" agent="Mozilla/5.0 (Windows NT 10.0; Win64; x64) AppleWebKit/537.36 (KHTML, like Gecko) Chrome/131.0.0.0 Safari/537.36 OPR/116.0.0.0" version="26.0.10">
  <diagram name="Page-1" id="tqhiD5i2jpRgHsEMoRQg">
    <mxGraphModel dx="572" dy="750" grid="1" gridSize="10" guides="1" tooltips="1" connect="1" arrows="1" fold="1" page="1" pageScale="1" pageWidth="850" pageHeight="1100" math="0" shadow="0">
      <root>
        <mxCell id="0" />
        <mxCell id="1" parent="0" />
        <mxCell id="lN25DjwW0hR182y5FxII-3" value="" style="group" parent="1" vertex="1" connectable="0">
          <mxGeometry x="240" y="50" width="120" height="60" as="geometry" />
        </mxCell>
        <mxCell id="lN25DjwW0hR182y5FxII-1" value="" style="rounded=0;whiteSpace=wrap;html=1;" parent="lN25DjwW0hR182y5FxII-3" vertex="1">
          <mxGeometry width="120" height="60" as="geometry" />
        </mxCell>
        <mxCell id="lN25DjwW0hR182y5FxII-2" value="Credit Card" style="text;html=1;align=center;verticalAlign=middle;whiteSpace=wrap;rounded=0;" parent="lN25DjwW0hR182y5FxII-3" vertex="1">
          <mxGeometry x="10" y="10" width="100" height="40" as="geometry" />
        </mxCell>
        <mxCell id="lN25DjwW0hR182y5FxII-9" value="" style="group" parent="1" vertex="1" connectable="0">
          <mxGeometry x="240" y="210" width="120" height="60" as="geometry" />
        </mxCell>
        <mxCell id="lN25DjwW0hR182y5FxII-10" value="" style="rounded=0;whiteSpace=wrap;html=1;" parent="lN25DjwW0hR182y5FxII-9" vertex="1">
          <mxGeometry width="120" height="60" as="geometry" />
        </mxCell>
        <mxCell id="lN25DjwW0hR182y5FxII-11" value="User" style="text;html=1;align=center;verticalAlign=middle;whiteSpace=wrap;rounded=0;" parent="lN25DjwW0hR182y5FxII-9" vertex="1">
          <mxGeometry x="10" y="10" width="100" height="40" as="geometry" />
        </mxCell>
        <mxCell id="lN25DjwW0hR182y5FxII-12" value="" style="endArrow=none;html=1;rounded=0;fontSize=12;startSize=8;endSize=8;curved=1;exitX=0.5;exitY=0;exitDx=0;exitDy=0;entryX=0.5;entryY=1;entryDx=0;entryDy=0;" parent="1" source="lN25DjwW0hR182y5FxII-10" target="lN25DjwW0hR182y5FxII-1" edge="1">
          <mxGeometry width="50" height="50" relative="1" as="geometry">
            <mxPoint x="490" y="470" as="sourcePoint" />
            <mxPoint x="540" y="420" as="targetPoint" />
          </mxGeometry>
        </mxCell>
        <mxCell id="lN25DjwW0hR182y5FxII-13" value="1" style="text;html=1;align=center;verticalAlign=middle;whiteSpace=wrap;rounded=0;" parent="1" vertex="1">
          <mxGeometry x="300" y="180" width="20" height="30" as="geometry" />
        </mxCell>
        <mxCell id="lN25DjwW0hR182y5FxII-14" value="1...*" style="text;html=1;align=center;verticalAlign=middle;whiteSpace=wrap;rounded=0;" parent="1" vertex="1">
          <mxGeometry x="300" y="110" width="30" height="30" as="geometry" />
        </mxCell>
        <mxCell id="lN25DjwW0hR182y5FxII-15" value="Owns" style="text;html=1;align=center;verticalAlign=middle;whiteSpace=wrap;rounded=0;" parent="1" vertex="1">
          <mxGeometry x="300" y="160" width="60" height="30" as="geometry" />
        </mxCell>
        <mxCell id="lN25DjwW0hR182y5FxII-18" value="" style="group" parent="1" vertex="1" connectable="0">
          <mxGeometry x="520" y="50" width="120" height="60" as="geometry" />
        </mxCell>
        <mxCell id="lN25DjwW0hR182y5FxII-19" value="" style="rounded=0;whiteSpace=wrap;html=1;" parent="lN25DjwW0hR182y5FxII-18" vertex="1">
          <mxGeometry width="120" height="60" as="geometry" />
        </mxCell>
        <mxCell id="lN25DjwW0hR182y5FxII-20" value="Card Reader" style="text;html=1;align=center;verticalAlign=middle;whiteSpace=wrap;rounded=0;" parent="lN25DjwW0hR182y5FxII-18" vertex="1">
          <mxGeometry x="10" y="10" width="100" height="40" as="geometry" />
        </mxCell>
        <mxCell id="lN25DjwW0hR182y5FxII-21" value="" style="endArrow=none;html=1;rounded=0;fontSize=12;startSize=8;endSize=8;curved=1;exitX=1;exitY=0.5;exitDx=0;exitDy=0;entryX=0;entryY=0.5;entryDx=0;entryDy=0;" parent="1" source="lN25DjwW0hR182y5FxII-1" target="lN25DjwW0hR182y5FxII-19" edge="1">
          <mxGeometry width="50" height="50" relative="1" as="geometry">
            <mxPoint x="490" y="470" as="sourcePoint" />
            <mxPoint x="540" y="420" as="targetPoint" />
          </mxGeometry>
        </mxCell>
        <mxCell id="lN25DjwW0hR182y5FxII-22" value="Is inserted into" style="text;html=1;align=center;verticalAlign=middle;whiteSpace=wrap;rounded=0;" parent="1" vertex="1">
          <mxGeometry x="400" y="40" width="60" height="30" as="geometry" />
        </mxCell>
        <mxCell id="lN25DjwW0hR182y5FxII-23" value="1" style="text;html=1;align=center;verticalAlign=middle;whiteSpace=wrap;rounded=0;" parent="1" vertex="1">
          <mxGeometry x="360" y="50" width="20" height="30" as="geometry" />
        </mxCell>
        <mxCell id="lN25DjwW0hR182y5FxII-24" value="1" style="text;html=1;align=center;verticalAlign=middle;whiteSpace=wrap;rounded=0;" parent="1" vertex="1">
          <mxGeometry x="500" y="50" width="20" height="30" as="geometry" />
        </mxCell>
        <mxCell id="lN25DjwW0hR182y5FxII-32" value="" style="group" parent="1" vertex="1" connectable="0">
          <mxGeometry x="520" y="210" width="120" height="60" as="geometry" />
        </mxCell>
        <mxCell id="lN25DjwW0hR182y5FxII-33" value="" style="rounded=0;whiteSpace=wrap;html=1;" parent="lN25DjwW0hR182y5FxII-32" vertex="1">
          <mxGeometry width="120" height="60" as="geometry" />
        </mxCell>
        <mxCell id="lN25DjwW0hR182y5FxII-34" value="Authorizing Program" style="text;html=1;align=center;verticalAlign=middle;whiteSpace=wrap;rounded=0;" parent="lN25DjwW0hR182y5FxII-32" vertex="1">
          <mxGeometry x="10" y="10" width="100" height="40" as="geometry" />
        </mxCell>
        <mxCell id="lN25DjwW0hR182y5FxII-35" value="" style="endArrow=none;html=1;rounded=0;fontSize=12;startSize=8;endSize=8;curved=1;exitX=1;exitY=0.5;exitDx=0;exitDy=0;entryX=0;entryY=0.5;entryDx=0;entryDy=0;" parent="1" source="lN25DjwW0hR182y5FxII-10" target="lN25DjwW0hR182y5FxII-33" edge="1">
          <mxGeometry width="50" height="50" relative="1" as="geometry">
            <mxPoint x="490" y="370" as="sourcePoint" />
            <mxPoint x="540" y="320" as="targetPoint" />
          </mxGeometry>
        </mxCell>
        <mxCell id="lN25DjwW0hR182y5FxII-36" value="1" style="text;html=1;align=center;verticalAlign=middle;whiteSpace=wrap;rounded=0;" parent="1" vertex="1">
          <mxGeometry x="360" y="210" width="20" height="30" as="geometry" />
        </mxCell>
        <mxCell id="lN25DjwW0hR182y5FxII-37" value="1" style="text;html=1;align=center;verticalAlign=middle;whiteSpace=wrap;rounded=0;" parent="1" vertex="1">
          <mxGeometry x="500" y="210" width="20" height="30" as="geometry" />
        </mxCell>
        <mxCell id="lN25DjwW0hR182y5FxII-38" value="Selects pre-payment plan" style="text;html=1;align=center;verticalAlign=middle;whiteSpace=wrap;rounded=0;" parent="1" vertex="1">
          <mxGeometry x="390" y="210" width="80" height="30" as="geometry" />
        </mxCell>
        <mxCell id="lN25DjwW0hR182y5FxII-45" value="" style="endArrow=none;html=1;rounded=0;fontSize=12;startSize=8;endSize=8;curved=1;entryX=0.5;entryY=1;entryDx=0;entryDy=0;exitX=0.5;exitY=0;exitDx=0;exitDy=0;" parent="1" source="lN25DjwW0hR182y5FxII-33" target="lN25DjwW0hR182y5FxII-19" edge="1">
          <mxGeometry width="50" height="50" relative="1" as="geometry">
            <mxPoint x="570" y="370" as="sourcePoint" />
            <mxPoint x="620" y="320" as="targetPoint" />
          </mxGeometry>
        </mxCell>
        <mxCell id="lN25DjwW0hR182y5FxII-46" value="1" style="text;html=1;align=center;verticalAlign=middle;whiteSpace=wrap;rounded=0;" parent="1" vertex="1">
          <mxGeometry x="580" y="180" width="20" height="30" as="geometry" />
        </mxCell>
        <mxCell id="lN25DjwW0hR182y5FxII-47" value="1" style="text;html=1;align=center;verticalAlign=middle;whiteSpace=wrap;rounded=0;" parent="1" vertex="1">
          <mxGeometry x="580" y="110" width="20" height="30" as="geometry" />
        </mxCell>
        <mxCell id="lN25DjwW0hR182y5FxII-48" value="Gives card information to" style="text;html=1;align=center;verticalAlign=middle;whiteSpace=wrap;rounded=0;" parent="1" vertex="1">
          <mxGeometry x="580" y="135" width="80" height="30" as="geometry" />
        </mxCell>
        <mxCell id="lN25DjwW0hR182y5FxII-49" value="" style="triangle;whiteSpace=wrap;html=1;rotation=90;fillColor=#000000;" parent="1" vertex="1">
          <mxGeometry x="610" y="160" width="20" height="30" as="geometry" />
        </mxCell>
        <mxCell id="lN25DjwW0hR182y5FxII-51" value="" style="triangle;whiteSpace=wrap;html=1;rotation=0;fillColor=#000000;" parent="1" vertex="1">
          <mxGeometry x="460" y="40" width="20" height="30" as="geometry" />
        </mxCell>
        <mxCell id="lN25DjwW0hR182y5FxII-52" value="" style="triangle;whiteSpace=wrap;html=1;rotation=-90;fillColor=#000000;" parent="1" vertex="1">
          <mxGeometry x="320" y="135" width="20" height="30" as="geometry" />
        </mxCell>
        <mxCell id="lN25DjwW0hR182y5FxII-53" value="" style="triangle;whiteSpace=wrap;html=1;rotation=0;fillColor=#000000;" parent="1" vertex="1">
          <mxGeometry x="470" y="210" width="20" height="30" as="geometry" />
        </mxCell>
        <mxCell id="lN25DjwW0hR182y5FxII-54" value="" style="group" parent="1" vertex="1" connectable="0">
          <mxGeometry x="520" y="370" width="120" height="60" as="geometry" />
        </mxCell>
        <mxCell id="lN25DjwW0hR182y5FxII-55" value="" style="rounded=0;whiteSpace=wrap;html=1;" parent="lN25DjwW0hR182y5FxII-54" vertex="1">
          <mxGeometry width="120" height="60" as="geometry" />
        </mxCell>
        <mxCell id="lN25DjwW0hR182y5FxII-56" value="Credit card processing system" style="text;html=1;align=center;verticalAlign=middle;whiteSpace=wrap;rounded=0;" parent="lN25DjwW0hR182y5FxII-54" vertex="1">
          <mxGeometry x="10" y="10" width="100" height="40" as="geometry" />
        </mxCell>
        <mxCell id="lN25DjwW0hR182y5FxII-57" value="" style="endArrow=none;html=1;rounded=0;fontSize=12;startSize=8;endSize=8;curved=1;entryX=0.5;entryY=1;entryDx=0;entryDy=0;exitX=0.5;exitY=0;exitDx=0;exitDy=0;" parent="1" source="lN25DjwW0hR182y5FxII-55" target="lN25DjwW0hR182y5FxII-33" edge="1">
          <mxGeometry width="50" height="50" relative="1" as="geometry">
            <mxPoint x="490" y="380" as="sourcePoint" />
            <mxPoint x="540" y="330" as="targetPoint" />
          </mxGeometry>
        </mxCell>
        <mxCell id="lN25DjwW0hR182y5FxII-58" value="1...*" style="text;html=1;align=center;verticalAlign=middle;whiteSpace=wrap;rounded=0;" parent="1" vertex="1">
          <mxGeometry x="580" y="340" width="30" height="30" as="geometry" />
        </mxCell>
        <mxCell id="lN25DjwW0hR182y5FxII-59" value="1" style="text;html=1;align=center;verticalAlign=middle;whiteSpace=wrap;rounded=0;" parent="1" vertex="1">
          <mxGeometry x="580" y="270" width="20" height="30" as="geometry" />
        </mxCell>
        <mxCell id="lN25DjwW0hR182y5FxII-60" value="Connects with" style="text;html=1;align=center;verticalAlign=middle;whiteSpace=wrap;rounded=0;" parent="1" vertex="1">
          <mxGeometry x="590" y="290" width="60" height="30" as="geometry" />
        </mxCell>
        <mxCell id="lN25DjwW0hR182y5FxII-61" value="" style="triangle;whiteSpace=wrap;html=1;rotation=90;fillColor=#000000;" parent="1" vertex="1">
          <mxGeometry x="610" y="320" width="20" height="30" as="geometry" />
        </mxCell>
        <mxCell id="lN25DjwW0hR182y5FxII-62" value="" style="group" parent="1" vertex="1" connectable="0">
          <mxGeometry x="240" y="370" width="120" height="60" as="geometry" />
        </mxCell>
        <mxCell id="lN25DjwW0hR182y5FxII-63" value="" style="rounded=0;whiteSpace=wrap;html=1;" parent="lN25DjwW0hR182y5FxII-62" vertex="1">
          <mxGeometry width="120" height="60" as="geometry" />
        </mxCell>
        <mxCell id="lN25DjwW0hR182y5FxII-64" value="Nozzle" style="text;html=1;align=center;verticalAlign=middle;whiteSpace=wrap;rounded=0;" parent="lN25DjwW0hR182y5FxII-62" vertex="1">
          <mxGeometry x="10" y="10" width="100" height="40" as="geometry" />
        </mxCell>
        <mxCell id="lN25DjwW0hR182y5FxII-65" value="" style="endArrow=none;html=1;rounded=0;fontSize=12;startSize=8;endSize=8;curved=1;entryX=0.5;entryY=1;entryDx=0;entryDy=0;exitX=0.5;exitY=0;exitDx=0;exitDy=0;" parent="1" source="lN25DjwW0hR182y5FxII-63" target="lN25DjwW0hR182y5FxII-10" edge="1">
          <mxGeometry width="50" height="50" relative="1" as="geometry">
            <mxPoint x="490" y="380" as="sourcePoint" />
            <mxPoint x="540" y="330" as="targetPoint" />
          </mxGeometry>
        </mxCell>
        <mxCell id="lN25DjwW0hR182y5FxII-66" value="Pumps gas with" style="text;html=1;align=center;verticalAlign=middle;whiteSpace=wrap;rounded=0;" parent="1" vertex="1">
          <mxGeometry x="300" y="290" width="60" height="30" as="geometry" />
        </mxCell>
        <mxCell id="lN25DjwW0hR182y5FxII-67" value="" style="triangle;whiteSpace=wrap;html=1;rotation=90;fillColor=#000000;" parent="1" vertex="1">
          <mxGeometry x="320" y="320" width="20" height="30" as="geometry" />
        </mxCell>
        <mxCell id="lN25DjwW0hR182y5FxII-68" value="1" style="text;html=1;align=center;verticalAlign=middle;whiteSpace=wrap;rounded=0;" parent="1" vertex="1">
          <mxGeometry x="300" y="340" width="20" height="30" as="geometry" />
        </mxCell>
        <mxCell id="lN25DjwW0hR182y5FxII-69" value="1" style="text;html=1;align=center;verticalAlign=middle;whiteSpace=wrap;rounded=0;" parent="1" vertex="1">
          <mxGeometry x="300" y="270" width="20" height="30" as="geometry" />
        </mxCell>
        <mxCell id="lN25DjwW0hR182y5FxII-71" value="" style="endArrow=none;html=1;rounded=0;fontSize=12;startSize=8;endSize=8;curved=1;entryX=0;entryY=1;entryDx=0;entryDy=0;exitX=1;exitY=0;exitDx=0;exitDy=0;" parent="1" target="lN25DjwW0hR182y5FxII-33" edge="1">
          <mxGeometry width="50" height="50" relative="1" as="geometry">
            <mxPoint x="520" y="250" as="sourcePoint" />
            <mxPoint x="480" y="350" as="targetPoint" />
          </mxGeometry>
        </mxCell>
        <mxCell id="lN25DjwW0hR182y5FxII-72" value="" style="triangle;whiteSpace=wrap;html=1;rotation=-210;fillColor=#000000;" parent="1" vertex="1">
          <mxGeometry x="390" y="310" width="20" height="30" as="geometry" />
        </mxCell>
        <mxCell id="lN25DjwW0hR182y5FxII-73" value="Authorize usage of" style="text;html=1;align=center;verticalAlign=middle;whiteSpace=wrap;rounded=0;rotation=0;" parent="1" vertex="1">
          <mxGeometry x="410" y="280" width="60" height="30" as="geometry" />
        </mxCell>
        <mxCell id="lN25DjwW0hR182y5FxII-74" value="1" style="text;html=1;align=center;verticalAlign=middle;whiteSpace=wrap;rounded=0;" parent="1" vertex="1">
          <mxGeometry x="360" y="340" width="20" height="30" as="geometry" />
        </mxCell>
        <mxCell id="lN25DjwW0hR182y5FxII-76" value="" style="endArrow=none;html=1;rounded=0;fontSize=12;startSize=8;endSize=8;curved=1;entryX=0;entryY=1;entryDx=0;entryDy=0;exitX=1;exitY=0;exitDx=0;exitDy=0;" parent="1" source="lN25DjwW0hR182y5FxII-63" target="lN25DjwW0hR182y5FxII-33" edge="1">
          <mxGeometry width="50" height="50" relative="1" as="geometry">
            <mxPoint x="360" y="370" as="sourcePoint" />
            <mxPoint x="500" y="280" as="targetPoint" />
          </mxGeometry>
        </mxCell>
        <mxCell id="lN25DjwW0hR182y5FxII-77" value="1" style="text;html=1;align=center;verticalAlign=middle;whiteSpace=wrap;rounded=0;" parent="1" vertex="1">
          <mxGeometry x="500" y="250" width="20" height="30" as="geometry" />
        </mxCell>
        <mxCell id="lN25DjwW0hR182y5FxII-78" value="" style="endArrow=none;html=1;rounded=0;fontSize=12;startSize=8;endSize=8;curved=1;entryX=0;entryY=0.5;entryDx=0;entryDy=0;" parent="1" target="lN25DjwW0hR182y5FxII-10" edge="1">
          <mxGeometry width="50" height="50" relative="1" as="geometry">
            <mxPoint x="120" y="240" as="sourcePoint" />
            <mxPoint x="390" y="350" as="targetPoint" />
          </mxGeometry>
        </mxCell>
        <mxCell id="lN25DjwW0hR182y5FxII-79" value="" style="group" parent="1" vertex="1" connectable="0">
          <mxGeometry y="210" width="120" height="60" as="geometry" />
        </mxCell>
        <mxCell id="lN25DjwW0hR182y5FxII-80" value="" style="rounded=0;whiteSpace=wrap;html=1;" parent="lN25DjwW0hR182y5FxII-79" vertex="1">
          <mxGeometry width="120" height="60" as="geometry" />
        </mxCell>
        <mxCell id="lN25DjwW0hR182y5FxII-81" value="Fuel Grade" style="text;html=1;align=center;verticalAlign=middle;whiteSpace=wrap;rounded=0;" parent="lN25DjwW0hR182y5FxII-79" vertex="1">
          <mxGeometry x="10" y="10" width="100" height="40" as="geometry" />
        </mxCell>
        <mxCell id="6D90Wud56wNMZA_7Vkb0-1" value="" style="group" vertex="1" connectable="0" parent="1">
          <mxGeometry y="370" width="120" height="60" as="geometry" />
        </mxCell>
        <mxCell id="6D90Wud56wNMZA_7Vkb0-2" value="" style="rounded=0;whiteSpace=wrap;html=1;" vertex="1" parent="6D90Wud56wNMZA_7Vkb0-1">
          <mxGeometry width="120" height="60" as="geometry" />
        </mxCell>
        <mxCell id="6D90Wud56wNMZA_7Vkb0-3" value="Car" style="text;html=1;align=center;verticalAlign=middle;whiteSpace=wrap;rounded=0;" vertex="1" parent="6D90Wud56wNMZA_7Vkb0-1">
          <mxGeometry x="10" y="10" width="100" height="40" as="geometry" />
        </mxCell>
        <mxCell id="6D90Wud56wNMZA_7Vkb0-4" value="Selects" style="text;html=1;align=center;verticalAlign=middle;whiteSpace=wrap;rounded=0;" vertex="1" parent="1">
          <mxGeometry x="170" y="210" width="40" height="30" as="geometry" />
        </mxCell>
        <mxCell id="6D90Wud56wNMZA_7Vkb0-5" value="1" style="text;html=1;align=center;verticalAlign=middle;whiteSpace=wrap;rounded=0;" vertex="1" parent="1">
          <mxGeometry x="220" y="210" width="20" height="30" as="geometry" />
        </mxCell>
        <mxCell id="6D90Wud56wNMZA_7Vkb0-6" value="1" style="text;html=1;align=center;verticalAlign=middle;whiteSpace=wrap;rounded=0;" vertex="1" parent="1">
          <mxGeometry x="120" y="210" width="20" height="30" as="geometry" />
        </mxCell>
        <mxCell id="6D90Wud56wNMZA_7Vkb0-7" value="" style="triangle;whiteSpace=wrap;html=1;rotation=-180;fillColor=#000000;" vertex="1" parent="1">
          <mxGeometry x="150" y="210" width="20" height="30" as="geometry" />
        </mxCell>
        <mxCell id="6D90Wud56wNMZA_7Vkb0-8" value="" style="endArrow=none;html=1;rounded=0;exitX=1;exitY=0;exitDx=0;exitDy=0;entryX=0;entryY=1;entryDx=0;entryDy=0;" edge="1" parent="1" source="6D90Wud56wNMZA_7Vkb0-2" target="lN25DjwW0hR182y5FxII-10">
          <mxGeometry width="50" height="50" relative="1" as="geometry">
            <mxPoint x="220" y="420" as="sourcePoint" />
            <mxPoint x="270" y="370" as="targetPoint" />
          </mxGeometry>
        </mxCell>
        <mxCell id="6D90Wud56wNMZA_7Vkb0-9" value="" style="triangle;whiteSpace=wrap;html=1;rotation=-210;fillColor=#000000;" vertex="1" parent="1">
          <mxGeometry x="130" y="305" width="20" height="30" as="geometry" />
        </mxCell>
        <mxCell id="6D90Wud56wNMZA_7Vkb0-10" value="Owns" style="text;html=1;align=center;verticalAlign=middle;whiteSpace=wrap;rounded=0;rotation=0;" vertex="1" parent="1">
          <mxGeometry x="150" y="275" width="60" height="30" as="geometry" />
        </mxCell>
      </root>
    </mxGraphModel>
  </diagram>
</mxfile>
